<mxfile host="app.diagrams.net" modified="2021-10-20T23:29:12.711Z" agent="5.0 (Windows)" etag="V0PAKDNDqfMQM2_ueC5L" version="14.9.2" type="github">
  <diagram id="OWyu6WqVMD9uw1F_xlDs" name="Page-1">
    <mxGraphModel dx="2062" dy="1140" grid="1" gridSize="10" guides="1" tooltips="1" connect="1" arrows="1" fold="1" page="1" pageScale="1" pageWidth="850" pageHeight="1100" math="0" shadow="0">
      <root>
        <mxCell id="0" />
        <mxCell id="1" parent="0" />
        <mxCell id="V6vX5GjA_YbjRxT8phmb-1" value="Actor" style="shape=umlActor;verticalLabelPosition=bottom;verticalAlign=top;html=1;outlineConnect=0;" parent="1" vertex="1">
          <mxGeometry x="490" y="360" width="30" height="60" as="geometry" />
        </mxCell>
        <mxCell id="xdpYMdmOCINKJ0DQFb-T-1" value="" style="rounded=1;whiteSpace=wrap;html=1;" vertex="1" parent="1">
          <mxGeometry x="360" y="550" width="120" height="60" as="geometry" />
        </mxCell>
      </root>
    </mxGraphModel>
  </diagram>
</mxfile>
